<svg width="20" height="20" viewBox="0 0 20 20" fill="none" xmlns="http://www.w3.org/2000/svg">
<path d="M14.9664 19.2849C12.4039 19.2849 8.71641 17.4412 5.34141 14.2224C0.747657 9.84741 -1.22109 4.97241 0.778907 2.84741C0.872657 2.75366 0.966407 2.69116 1.09141 2.62866L3.71641 1.15991C4.31016 0.847408 5.06016 1.00366 5.43516 1.53491L7.34141 4.25366C7.52891 4.53491 7.62266 4.87866 7.56016 5.19116C7.49766 5.53491 7.31016 5.81616 7.02891 6.00366L5.87266 6.75366C5.81016 6.78491 5.81016 6.81616 5.81016 6.84741C5.81016 6.87866 5.81016 6.90991 5.84141 6.94116C6.68516 8.19116 9.09141 11.3787 12.9039 13.6599C12.9977 13.7224 13.1539 13.6912 13.2164 13.6287L14.0289 12.5349C14.4352 11.9724 15.2164 11.8474 15.8102 12.2224L18.6539 14.0349C19.2477 14.4099 19.4352 15.1599 19.0602 15.7537L17.4977 18.2537C17.4352 18.3787 17.3414 18.4724 17.2477 18.5349C16.6539 19.0662 15.8727 19.2849 14.9664 19.2849ZM4.37266 2.06616C4.34141 2.06616 4.31016 2.06616 4.24766 2.09741L1.62266 3.56616C1.59141 3.59741 1.59141 3.59741 1.56016 3.59741C0.247658 5.00366 1.74766 9.28491 6.12266 13.4412C10.4977 17.5974 15.0289 19.0349 16.5289 17.7537C16.5289 17.7537 16.5289 17.7537 16.5602 17.7224L18.1227 15.2224C18.1539 15.1599 18.1539 15.0662 18.0602 15.0037L15.2164 13.1912C15.1227 13.1287 14.9664 13.1599 14.9039 13.2224L14.0914 14.3162C13.6852 14.8474 12.9352 15.0037 12.3414 14.6599C8.31016 12.2537 5.81016 8.90991 4.93516 7.56616C4.74766 7.28491 4.68516 6.97241 4.74766 6.62866C4.81016 6.31616 4.99766 6.00366 5.27891 5.84741L6.43516 5.06616C6.49766 5.03491 6.49766 5.00366 6.49766 4.97241C6.49766 4.94116 6.49766 4.90991 6.46641 4.84741L4.56016 2.12866C4.52891 2.09741 4.43516 2.06616 4.37266 2.06616Z" fill="white"/>
</svg>
